<?xml version="1.0" encoding="UTF-8"?>
<svg width="445px" height="226px" viewBox="0 0 445 226" version="1.1" xmlns="http://www.w3.org/2000/svg" xmlns:xlink="http://www.w3.org/1999/xlink">
    <!-- Generator: Sketch 43.1 (39012) - http://www.bohemiancoding.com/sketch -->
    <title>Artboard</title>
    <desc>Created with Sketch.</desc>
    <defs></defs>
    <g id="Page-1" stroke="none" stroke-width="1" fill="none" fill-rule="evenodd">
        <g id="Artboard" stroke="#979797" fill="#454545">
            <path d="M85.0976562,121.90332 C85.0976562,137.333984 85.625,148.763672 85.0976562,169.71582 C82.4609375,191.435547 62.5654297,194.163086 62.5654297,194.163086 L27.3261719,194.666992 C27.3261719,194.666992 6.32226563,190.667969 3.51660156,172.859375 C3.51660156,148.464844 3.109375,161.28418 3.51660156,133.897461 C3.51660156,122.395194 4.95278426,103.254069 9.73046875,90.8808594 C11.2802734,86.8671875 35.8573486,11.3907689 118.933594,3.5078125 C193.341797,-1.31054688 232.012695,59.6220703 232.012695,59.6220703 L279.060547,117.933594 C279.060547,117.933594 294.276855,139.317871 312.822754,139.317871 C350.718262,139.841797 356.496094,111.256836 358.016602,106.1875 C358.977051,101.733398 358.727051,84.71875 359.422363,55.1914063 C359.422363,35.6464844 382.115234,30.8476563 382.115234,30.8476563 L417.726563,30.8476563 C417.726563,30.8476563 439.410156,35.3164062 441.046875,55.1914063 C441.046875,69.8515625 441.046875,96.8046875 441.046875,96.8046875 C441.046875,96.8046875 441.046875,209.341797 324.710938,221.480469 C259.542969,227.125 224.007813,178.972656 224.007813,178.972656 L167.542969,109.523437 C167.542969,109.523437 150.748047,82.5341797 124.039063,84.71875 C97.15625,86.6064453 85.0976562,111.248047 85.0976562,121.90332 Z" id="v"></path>
        </g>
    </g>
</svg>